<?xml version="1.0" encoding="utf-8" standalone="no"?>
<!DOCTYPE svg PUBLIC "-//W3C//DTD SVG 1.1//EN"
  "http://www.w3.org/Graphics/SVG/1.1/DTD/svg11.dtd">
<!-- Created with matplotlib (https://matplotlib.org/) -->
<svg height="288pt" version="1.1" viewBox="0 0 576 288" width="576pt" xmlns="http://www.w3.org/2000/svg" xmlns:xlink="http://www.w3.org/1999/xlink">
 <defs>
  <style type="text/css">
*{stroke-linecap:butt;stroke-linejoin:round;}
  </style>
 </defs>
 <g id="figure_1">
  <g id="patch_1">
   <path d="M 0 288 
L 576 288 
L 576 0 
L 0 0 
z
" style="fill:#ffffff;"/>
  </g>
  <g id="axes_1">
   <g id="patch_2">
    <path d="M 72 256.32 
L 274.909091 256.32 
L 274.909091 34.56 
L 72 34.56 
z
" style="fill:#ffffff;"/>
   </g>
   <g id="matplotlib.axis_1">
    <g id="xtick_1">
     <g id="line2d_1">
      <path clip-path="url(#pc34aa8b378)" d="M 81.22314 256.32 
L 81.22314 34.56 
" style="fill:none;stroke:#cccccc;stroke-linecap:round;stroke-width:0.8;"/>
     </g>
     <g id="line2d_2"/>
     <g id="text_1">
      <!-- 0 -->
      <defs>
       <path d="M 4.15625 35.296875 
Q 4.15625 48 6.765625 55.734375 
Q 9.375 63.484375 14.515625 67.671875 
Q 19.671875 71.875 27.484375 71.875 
Q 33.25 71.875 37.59375 69.546875 
Q 41.9375 67.234375 44.765625 62.859375 
Q 47.609375 58.5 49.21875 52.21875 
Q 50.828125 45.953125 50.828125 35.296875 
Q 50.828125 22.703125 48.234375 14.96875 
Q 45.65625 7.234375 40.5 3 
Q 35.359375 -1.21875 27.484375 -1.21875 
Q 17.140625 -1.21875 11.234375 6.203125 
Q 4.15625 15.140625 4.15625 35.296875 
z
M 13.1875 35.296875 
Q 13.1875 17.671875 17.3125 11.828125 
Q 21.4375 6 27.484375 6 
Q 33.546875 6 37.671875 11.859375 
Q 41.796875 17.71875 41.796875 35.296875 
Q 41.796875 52.984375 37.671875 58.78125 
Q 33.546875 64.59375 27.390625 64.59375 
Q 21.34375 64.59375 17.71875 59.46875 
Q 13.1875 52.9375 13.1875 35.296875 
z
" id="ArialMT-48"/>
      </defs>
      <g style="fill:#262626;" transform="translate(78.442672 266.977813)scale(0.1 -0.1)">
       <use xlink:href="#ArialMT-48"/>
      </g>
     </g>
    </g>
    <g id="xtick_2">
     <g id="line2d_3">
      <path clip-path="url(#pc34aa8b378)" d="M 121.323751 256.32 
L 121.323751 34.56 
" style="fill:none;stroke:#cccccc;stroke-linecap:round;stroke-width:0.8;"/>
     </g>
     <g id="line2d_4"/>
     <g id="text_2">
      <!-- 50 -->
      <defs>
       <path d="M 4.15625 18.75 
L 13.375 19.53125 
Q 14.40625 12.796875 18.140625 9.390625 
Q 21.875 6 27.15625 6 
Q 33.5 6 37.890625 10.78125 
Q 42.28125 15.578125 42.28125 23.484375 
Q 42.28125 31 38.0625 35.34375 
Q 33.84375 39.703125 27 39.703125 
Q 22.75 39.703125 19.328125 37.765625 
Q 15.921875 35.84375 13.96875 32.765625 
L 5.71875 33.84375 
L 12.640625 70.609375 
L 48.25 70.609375 
L 48.25 62.203125 
L 19.671875 62.203125 
L 15.828125 42.96875 
Q 22.265625 47.46875 29.34375 47.46875 
Q 38.71875 47.46875 45.15625 40.96875 
Q 51.609375 34.46875 51.609375 24.265625 
Q 51.609375 14.546875 45.953125 7.46875 
Q 39.0625 -1.21875 27.15625 -1.21875 
Q 17.390625 -1.21875 11.203125 4.25 
Q 5.03125 9.71875 4.15625 18.75 
z
" id="ArialMT-53"/>
      </defs>
      <g style="fill:#262626;" transform="translate(115.762814 266.977813)scale(0.1 -0.1)">
       <use xlink:href="#ArialMT-53"/>
       <use x="55.615234" xlink:href="#ArialMT-48"/>
      </g>
     </g>
    </g>
    <g id="xtick_3">
     <g id="line2d_5">
      <path clip-path="url(#pc34aa8b378)" d="M 161.424362 256.32 
L 161.424362 34.56 
" style="fill:none;stroke:#cccccc;stroke-linecap:round;stroke-width:0.8;"/>
     </g>
     <g id="line2d_6"/>
     <g id="text_3">
      <!-- 100 -->
      <defs>
       <path d="M 37.25 0 
L 28.46875 0 
L 28.46875 56 
Q 25.296875 52.984375 20.140625 49.953125 
Q 14.984375 46.921875 10.890625 45.40625 
L 10.890625 53.90625 
Q 18.265625 57.375 23.78125 62.296875 
Q 29.296875 67.234375 31.59375 71.875 
L 37.25 71.875 
z
" id="ArialMT-49"/>
      </defs>
      <g style="fill:#262626;" transform="translate(153.082956 266.977813)scale(0.1 -0.1)">
       <use xlink:href="#ArialMT-49"/>
       <use x="55.615234" xlink:href="#ArialMT-48"/>
       <use x="111.230469" xlink:href="#ArialMT-48"/>
      </g>
     </g>
    </g>
    <g id="xtick_4">
     <g id="line2d_7">
      <path clip-path="url(#pc34aa8b378)" d="M 201.524973 256.32 
L 201.524973 34.56 
" style="fill:none;stroke:#cccccc;stroke-linecap:round;stroke-width:0.8;"/>
     </g>
     <g id="line2d_8"/>
     <g id="text_4">
      <!-- 150 -->
      <g style="fill:#262626;" transform="translate(193.183567 266.977813)scale(0.1 -0.1)">
       <use xlink:href="#ArialMT-49"/>
       <use x="55.615234" xlink:href="#ArialMT-53"/>
       <use x="111.230469" xlink:href="#ArialMT-48"/>
      </g>
     </g>
    </g>
    <g id="xtick_5">
     <g id="line2d_9">
      <path clip-path="url(#pc34aa8b378)" d="M 241.625584 256.32 
L 241.625584 34.56 
" style="fill:none;stroke:#cccccc;stroke-linecap:round;stroke-width:0.8;"/>
     </g>
     <g id="line2d_10"/>
     <g id="text_5">
      <!-- 200 -->
      <defs>
       <path d="M 50.34375 8.453125 
L 50.34375 0 
L 3.03125 0 
Q 2.9375 3.171875 4.046875 6.109375 
Q 5.859375 10.9375 9.828125 15.625 
Q 13.8125 20.3125 21.34375 26.46875 
Q 33.015625 36.03125 37.109375 41.625 
Q 41.21875 47.21875 41.21875 52.203125 
Q 41.21875 57.421875 37.46875 61 
Q 33.734375 64.59375 27.734375 64.59375 
Q 21.390625 64.59375 17.578125 60.78125 
Q 13.765625 56.984375 13.71875 50.25 
L 4.6875 51.171875 
Q 5.609375 61.28125 11.65625 66.578125 
Q 17.71875 71.875 27.9375 71.875 
Q 38.234375 71.875 44.234375 66.15625 
Q 50.25 60.453125 50.25 52 
Q 50.25 47.703125 48.484375 43.546875 
Q 46.734375 39.40625 42.65625 34.8125 
Q 38.578125 30.21875 29.109375 22.21875 
Q 21.1875 15.578125 18.9375 13.203125 
Q 16.703125 10.84375 15.234375 8.453125 
z
" id="ArialMT-50"/>
      </defs>
      <g style="fill:#262626;" transform="translate(233.284178 266.977813)scale(0.1 -0.1)">
       <use xlink:href="#ArialMT-50"/>
       <use x="55.615234" xlink:href="#ArialMT-48"/>
       <use x="111.230469" xlink:href="#ArialMT-48"/>
      </g>
     </g>
    </g>
    <g id="text_6">
     <!-- Iterations -->
     <defs>
      <path d="M 9.328125 0 
L 9.328125 71.578125 
L 18.796875 71.578125 
L 18.796875 0 
z
" id="ArialMT-73"/>
      <path d="M 25.78125 7.859375 
L 27.046875 0.09375 
Q 23.34375 -0.6875 20.40625 -0.6875 
Q 15.625 -0.6875 12.984375 0.828125 
Q 10.359375 2.34375 9.28125 4.8125 
Q 8.203125 7.28125 8.203125 15.1875 
L 8.203125 45.015625 
L 1.765625 45.015625 
L 1.765625 51.859375 
L 8.203125 51.859375 
L 8.203125 64.703125 
L 16.9375 69.96875 
L 16.9375 51.859375 
L 25.78125 51.859375 
L 25.78125 45.015625 
L 16.9375 45.015625 
L 16.9375 14.703125 
Q 16.9375 10.9375 17.40625 9.859375 
Q 17.875 8.796875 18.921875 8.15625 
Q 19.96875 7.515625 21.921875 7.515625 
Q 23.390625 7.515625 25.78125 7.859375 
z
" id="ArialMT-116"/>
      <path d="M 42.09375 16.703125 
L 51.171875 15.578125 
Q 49.03125 7.625 43.21875 3.21875 
Q 37.40625 -1.171875 28.375 -1.171875 
Q 17 -1.171875 10.328125 5.828125 
Q 3.65625 12.84375 3.65625 25.484375 
Q 3.65625 38.578125 10.390625 45.796875 
Q 17.140625 53.03125 27.875 53.03125 
Q 38.28125 53.03125 44.875 45.953125 
Q 51.46875 38.875 51.46875 26.03125 
Q 51.46875 25.25 51.421875 23.6875 
L 12.75 23.6875 
Q 13.234375 15.140625 17.578125 10.59375 
Q 21.921875 6.0625 28.421875 6.0625 
Q 33.25 6.0625 36.671875 8.59375 
Q 40.09375 11.140625 42.09375 16.703125 
z
M 13.234375 30.90625 
L 42.1875 30.90625 
Q 41.609375 37.453125 38.875 40.71875 
Q 34.671875 45.796875 27.984375 45.796875 
Q 21.921875 45.796875 17.796875 41.75 
Q 13.671875 37.703125 13.234375 30.90625 
z
" id="ArialMT-101"/>
      <path d="M 6.5 0 
L 6.5 51.859375 
L 14.40625 51.859375 
L 14.40625 44 
Q 17.4375 49.515625 20 51.265625 
Q 22.5625 53.03125 25.640625 53.03125 
Q 30.078125 53.03125 34.671875 50.203125 
L 31.640625 42.046875 
Q 28.421875 43.953125 25.203125 43.953125 
Q 22.3125 43.953125 20.015625 42.21875 
Q 17.71875 40.484375 16.75 37.40625 
Q 15.28125 32.71875 15.28125 27.15625 
L 15.28125 0 
z
" id="ArialMT-114"/>
      <path d="M 40.4375 6.390625 
Q 35.546875 2.25 31.03125 0.53125 
Q 26.515625 -1.171875 21.34375 -1.171875 
Q 12.796875 -1.171875 8.203125 3 
Q 3.609375 7.171875 3.609375 13.671875 
Q 3.609375 17.484375 5.34375 20.625 
Q 7.078125 23.78125 9.890625 25.6875 
Q 12.703125 27.59375 16.21875 28.5625 
Q 18.796875 29.25 24.03125 29.890625 
Q 34.671875 31.15625 39.703125 32.90625 
Q 39.75 34.71875 39.75 35.203125 
Q 39.75 40.578125 37.25 42.78125 
Q 33.890625 45.75 27.25 45.75 
Q 21.046875 45.75 18.09375 43.578125 
Q 15.140625 41.40625 13.71875 35.890625 
L 5.125 37.0625 
Q 6.296875 42.578125 8.984375 45.96875 
Q 11.671875 49.359375 16.75 51.1875 
Q 21.828125 53.03125 28.515625 53.03125 
Q 35.15625 53.03125 39.296875 51.46875 
Q 43.453125 49.90625 45.40625 47.53125 
Q 47.359375 45.171875 48.140625 41.546875 
Q 48.578125 39.3125 48.578125 33.453125 
L 48.578125 21.734375 
Q 48.578125 9.46875 49.140625 6.21875 
Q 49.703125 2.984375 51.375 0 
L 42.1875 0 
Q 40.828125 2.734375 40.4375 6.390625 
z
M 39.703125 26.03125 
Q 34.90625 24.078125 25.34375 22.703125 
Q 19.921875 21.921875 17.671875 20.9375 
Q 15.4375 19.96875 14.203125 18.09375 
Q 12.984375 16.21875 12.984375 13.921875 
Q 12.984375 10.40625 15.640625 8.0625 
Q 18.3125 5.71875 23.4375 5.71875 
Q 28.515625 5.71875 32.46875 7.9375 
Q 36.421875 10.15625 38.28125 14.015625 
Q 39.703125 17 39.703125 22.796875 
z
" id="ArialMT-97"/>
      <path d="M 6.640625 61.46875 
L 6.640625 71.578125 
L 15.4375 71.578125 
L 15.4375 61.46875 
z
M 6.640625 0 
L 6.640625 51.859375 
L 15.4375 51.859375 
L 15.4375 0 
z
" id="ArialMT-105"/>
      <path d="M 3.328125 25.921875 
Q 3.328125 40.328125 11.328125 47.265625 
Q 18.015625 53.03125 27.640625 53.03125 
Q 38.328125 53.03125 45.109375 46.015625 
Q 51.90625 39.015625 51.90625 26.65625 
Q 51.90625 16.65625 48.90625 10.90625 
Q 45.90625 5.171875 40.15625 2 
Q 34.421875 -1.171875 27.640625 -1.171875 
Q 16.75 -1.171875 10.03125 5.8125 
Q 3.328125 12.796875 3.328125 25.921875 
z
M 12.359375 25.921875 
Q 12.359375 15.96875 16.703125 11.015625 
Q 21.046875 6.0625 27.640625 6.0625 
Q 34.1875 6.0625 38.53125 11.03125 
Q 42.875 16.015625 42.875 26.21875 
Q 42.875 35.84375 38.5 40.796875 
Q 34.125 45.75 27.640625 45.75 
Q 21.046875 45.75 16.703125 40.8125 
Q 12.359375 35.890625 12.359375 25.921875 
z
" id="ArialMT-111"/>
      <path d="M 6.59375 0 
L 6.59375 51.859375 
L 14.5 51.859375 
L 14.5 44.484375 
Q 20.21875 53.03125 31 53.03125 
Q 35.6875 53.03125 39.625 51.34375 
Q 43.5625 49.65625 45.515625 46.921875 
Q 47.46875 44.1875 48.25 40.4375 
Q 48.734375 37.984375 48.734375 31.890625 
L 48.734375 0 
L 39.9375 0 
L 39.9375 31.546875 
Q 39.9375 36.921875 38.90625 39.578125 
Q 37.890625 42.234375 35.28125 43.8125 
Q 32.671875 45.40625 29.15625 45.40625 
Q 23.53125 45.40625 19.453125 41.84375 
Q 15.375 38.28125 15.375 28.328125 
L 15.375 0 
z
" id="ArialMT-110"/>
      <path d="M 3.078125 15.484375 
L 11.765625 16.84375 
Q 12.5 11.625 15.84375 8.84375 
Q 19.1875 6.0625 25.203125 6.0625 
Q 31.25 6.0625 34.171875 8.515625 
Q 37.109375 10.984375 37.109375 14.3125 
Q 37.109375 17.28125 34.515625 19 
Q 32.71875 20.171875 25.53125 21.96875 
Q 15.875 24.421875 12.140625 26.203125 
Q 8.40625 27.984375 6.46875 31.125 
Q 4.546875 34.28125 4.546875 38.09375 
Q 4.546875 41.546875 6.125 44.5 
Q 7.71875 47.46875 10.453125 49.421875 
Q 12.5 50.921875 16.03125 51.96875 
Q 19.578125 53.03125 23.640625 53.03125 
Q 29.734375 53.03125 34.34375 51.265625 
Q 38.96875 49.515625 41.15625 46.5 
Q 43.359375 43.5 44.1875 38.484375 
L 35.59375 37.3125 
Q 35.015625 41.3125 32.203125 43.546875 
Q 29.390625 45.796875 24.265625 45.796875 
Q 18.21875 45.796875 15.625 43.796875 
Q 13.03125 41.796875 13.03125 39.109375 
Q 13.03125 37.40625 14.109375 36.03125 
Q 15.1875 34.625 17.484375 33.6875 
Q 18.796875 33.203125 25.25 31.453125 
Q 34.578125 28.953125 38.25 27.359375 
Q 41.9375 25.78125 44.03125 22.75 
Q 46.140625 19.734375 46.140625 15.234375 
Q 46.140625 10.84375 43.578125 6.953125 
Q 41.015625 3.078125 36.171875 0.953125 
Q 31.34375 -1.171875 25.25 -1.171875 
Q 15.140625 -1.171875 9.84375 3.03125 
Q 4.546875 7.234375 3.078125 15.484375 
z
" id="ArialMT-115"/>
     </defs>
     <g style="fill:#262626;" transform="translate(152.889702 280.123125)scale(0.1 -0.1)">
      <use xlink:href="#ArialMT-73"/>
      <use x="27.783203" xlink:href="#ArialMT-116"/>
      <use x="55.566406" xlink:href="#ArialMT-101"/>
      <use x="111.181641" xlink:href="#ArialMT-114"/>
      <use x="144.482422" xlink:href="#ArialMT-97"/>
      <use x="200.097656" xlink:href="#ArialMT-116"/>
      <use x="227.880859" xlink:href="#ArialMT-105"/>
      <use x="250.097656" xlink:href="#ArialMT-111"/>
      <use x="305.712891" xlink:href="#ArialMT-110"/>
      <use x="361.328125" xlink:href="#ArialMT-115"/>
     </g>
    </g>
   </g>
   <g id="matplotlib.axis_2">
    <g id="ytick_1">
     <g id="line2d_11">
      <path clip-path="url(#pc34aa8b378)" d="M 72 256.32 
L 274.909091 256.32 
" style="fill:none;stroke:#cccccc;stroke-linecap:round;stroke-width:0.8;"/>
     </g>
     <g id="line2d_12"/>
     <g id="text_7">
      <!-- 0.800 -->
      <defs>
       <path d="M 9.078125 0 
L 9.078125 10.015625 
L 19.09375 10.015625 
L 19.09375 0 
z
" id="ArialMT-46"/>
       <path d="M 17.671875 38.8125 
Q 12.203125 40.828125 9.5625 44.53125 
Q 6.9375 48.25 6.9375 53.421875 
Q 6.9375 61.234375 12.546875 66.546875 
Q 18.171875 71.875 27.484375 71.875 
Q 36.859375 71.875 42.578125 66.421875 
Q 48.296875 60.984375 48.296875 53.171875 
Q 48.296875 48.1875 45.671875 44.5 
Q 43.0625 40.828125 37.75 38.8125 
Q 44.34375 36.671875 47.78125 31.875 
Q 51.21875 27.09375 51.21875 20.453125 
Q 51.21875 11.28125 44.71875 5.03125 
Q 38.234375 -1.21875 27.640625 -1.21875 
Q 17.046875 -1.21875 10.546875 5.046875 
Q 4.046875 11.328125 4.046875 20.703125 
Q 4.046875 27.6875 7.59375 32.390625 
Q 11.140625 37.109375 17.671875 38.8125 
z
M 15.921875 53.71875 
Q 15.921875 48.640625 19.1875 45.40625 
Q 22.46875 42.1875 27.6875 42.1875 
Q 32.765625 42.1875 36.015625 45.375 
Q 39.265625 48.578125 39.265625 53.21875 
Q 39.265625 58.0625 35.90625 61.359375 
Q 32.5625 64.65625 27.59375 64.65625 
Q 22.5625 64.65625 19.234375 61.421875 
Q 15.921875 58.203125 15.921875 53.71875 
z
M 13.09375 20.65625 
Q 13.09375 16.890625 14.875 13.375 
Q 16.65625 9.859375 20.171875 7.921875 
Q 23.6875 6 27.734375 6 
Q 34.03125 6 38.125 10.046875 
Q 42.234375 14.109375 42.234375 20.359375 
Q 42.234375 26.703125 38.015625 30.859375 
Q 33.796875 35.015625 27.4375 35.015625 
Q 21.234375 35.015625 17.15625 30.90625 
Q 13.09375 26.8125 13.09375 20.65625 
z
" id="ArialMT-56"/>
      </defs>
      <g style="fill:#262626;" transform="translate(43.478125 259.898906)scale(0.1 -0.1)">
       <use xlink:href="#ArialMT-48"/>
       <use x="55.615234" xlink:href="#ArialMT-46"/>
       <use x="83.398438" xlink:href="#ArialMT-56"/>
       <use x="139.013672" xlink:href="#ArialMT-48"/>
       <use x="194.628906" xlink:href="#ArialMT-48"/>
      </g>
     </g>
    </g>
    <g id="ytick_2">
     <g id="line2d_13">
      <path clip-path="url(#pc34aa8b378)" d="M 72 229.92 
L 274.909091 229.92 
" style="fill:none;stroke:#cccccc;stroke-linecap:round;stroke-width:0.8;"/>
     </g>
     <g id="line2d_14"/>
     <g id="text_8">
      <!-- 0.825 -->
      <g style="fill:#262626;" transform="translate(43.478125 233.498906)scale(0.1 -0.1)">
       <use xlink:href="#ArialMT-48"/>
       <use x="55.615234" xlink:href="#ArialMT-46"/>
       <use x="83.398438" xlink:href="#ArialMT-56"/>
       <use x="139.013672" xlink:href="#ArialMT-50"/>
       <use x="194.628906" xlink:href="#ArialMT-53"/>
      </g>
     </g>
    </g>
    <g id="ytick_3">
     <g id="line2d_15">
      <path clip-path="url(#pc34aa8b378)" d="M 72 203.52 
L 274.909091 203.52 
" style="fill:none;stroke:#cccccc;stroke-linecap:round;stroke-width:0.8;"/>
     </g>
     <g id="line2d_16"/>
     <g id="text_9">
      <!-- 0.850 -->
      <g style="fill:#262626;" transform="translate(43.478125 207.098906)scale(0.1 -0.1)">
       <use xlink:href="#ArialMT-48"/>
       <use x="55.615234" xlink:href="#ArialMT-46"/>
       <use x="83.398438" xlink:href="#ArialMT-56"/>
       <use x="139.013672" xlink:href="#ArialMT-53"/>
       <use x="194.628906" xlink:href="#ArialMT-48"/>
      </g>
     </g>
    </g>
    <g id="ytick_4">
     <g id="line2d_17">
      <path clip-path="url(#pc34aa8b378)" d="M 72 177.12 
L 274.909091 177.12 
" style="fill:none;stroke:#cccccc;stroke-linecap:round;stroke-width:0.8;"/>
     </g>
     <g id="line2d_18"/>
     <g id="text_10">
      <!-- 0.875 -->
      <defs>
       <path d="M 4.734375 62.203125 
L 4.734375 70.65625 
L 51.078125 70.65625 
L 51.078125 63.8125 
Q 44.234375 56.546875 37.515625 44.484375 
Q 30.8125 32.421875 27.15625 19.671875 
Q 24.515625 10.6875 23.78125 0 
L 14.75 0 
Q 14.890625 8.453125 18.0625 20.40625 
Q 21.234375 32.375 27.171875 43.484375 
Q 33.109375 54.59375 39.796875 62.203125 
z
" id="ArialMT-55"/>
      </defs>
      <g style="fill:#262626;" transform="translate(43.478125 180.698906)scale(0.1 -0.1)">
       <use xlink:href="#ArialMT-48"/>
       <use x="55.615234" xlink:href="#ArialMT-46"/>
       <use x="83.398438" xlink:href="#ArialMT-56"/>
       <use x="139.013672" xlink:href="#ArialMT-55"/>
       <use x="194.628906" xlink:href="#ArialMT-53"/>
      </g>
     </g>
    </g>
    <g id="ytick_5">
     <g id="line2d_19">
      <path clip-path="url(#pc34aa8b378)" d="M 72 150.72 
L 274.909091 150.72 
" style="fill:none;stroke:#cccccc;stroke-linecap:round;stroke-width:0.8;"/>
     </g>
     <g id="line2d_20"/>
     <g id="text_11">
      <!-- 0.900 -->
      <defs>
       <path d="M 5.46875 16.546875 
L 13.921875 17.328125 
Q 14.984375 11.375 18.015625 8.6875 
Q 21.046875 6 25.78125 6 
Q 29.828125 6 32.875 7.859375 
Q 35.9375 9.71875 37.890625 12.8125 
Q 39.84375 15.921875 41.15625 21.1875 
Q 42.484375 26.46875 42.484375 31.9375 
Q 42.484375 32.515625 42.4375 33.6875 
Q 39.796875 29.5 35.234375 26.875 
Q 30.671875 24.265625 25.34375 24.265625 
Q 16.453125 24.265625 10.296875 30.703125 
Q 4.15625 37.15625 4.15625 47.703125 
Q 4.15625 58.59375 10.578125 65.234375 
Q 17 71.875 26.65625 71.875 
Q 33.640625 71.875 39.421875 68.109375 
Q 45.21875 64.359375 48.21875 57.390625 
Q 51.21875 50.4375 51.21875 37.25 
Q 51.21875 23.53125 48.234375 15.40625 
Q 45.265625 7.28125 39.375 3.03125 
Q 33.5 -1.21875 25.59375 -1.21875 
Q 17.1875 -1.21875 11.859375 3.4375 
Q 6.546875 8.109375 5.46875 16.546875 
z
M 41.453125 48.140625 
Q 41.453125 55.71875 37.421875 60.15625 
Q 33.40625 64.59375 27.734375 64.59375 
Q 21.875 64.59375 17.53125 59.8125 
Q 13.1875 55.03125 13.1875 47.40625 
Q 13.1875 40.578125 17.3125 36.296875 
Q 21.4375 32.03125 27.484375 32.03125 
Q 33.59375 32.03125 37.515625 36.296875 
Q 41.453125 40.578125 41.453125 48.140625 
z
" id="ArialMT-57"/>
      </defs>
      <g style="fill:#262626;" transform="translate(43.478125 154.298906)scale(0.1 -0.1)">
       <use xlink:href="#ArialMT-48"/>
       <use x="55.615234" xlink:href="#ArialMT-46"/>
       <use x="83.398438" xlink:href="#ArialMT-57"/>
       <use x="139.013672" xlink:href="#ArialMT-48"/>
       <use x="194.628906" xlink:href="#ArialMT-48"/>
      </g>
     </g>
    </g>
    <g id="ytick_6">
     <g id="line2d_21">
      <path clip-path="url(#pc34aa8b378)" d="M 72 124.32 
L 274.909091 124.32 
" style="fill:none;stroke:#cccccc;stroke-linecap:round;stroke-width:0.8;"/>
     </g>
     <g id="line2d_22"/>
     <g id="text_12">
      <!-- 0.925 -->
      <g style="fill:#262626;" transform="translate(43.478125 127.898906)scale(0.1 -0.1)">
       <use xlink:href="#ArialMT-48"/>
       <use x="55.615234" xlink:href="#ArialMT-46"/>
       <use x="83.398438" xlink:href="#ArialMT-57"/>
       <use x="139.013672" xlink:href="#ArialMT-50"/>
       <use x="194.628906" xlink:href="#ArialMT-53"/>
      </g>
     </g>
    </g>
    <g id="ytick_7">
     <g id="line2d_23">
      <path clip-path="url(#pc34aa8b378)" d="M 72 97.92 
L 274.909091 97.92 
" style="fill:none;stroke:#cccccc;stroke-linecap:round;stroke-width:0.8;"/>
     </g>
     <g id="line2d_24"/>
     <g id="text_13">
      <!-- 0.950 -->
      <g style="fill:#262626;" transform="translate(43.478125 101.498906)scale(0.1 -0.1)">
       <use xlink:href="#ArialMT-48"/>
       <use x="55.615234" xlink:href="#ArialMT-46"/>
       <use x="83.398438" xlink:href="#ArialMT-57"/>
       <use x="139.013672" xlink:href="#ArialMT-53"/>
       <use x="194.628906" xlink:href="#ArialMT-48"/>
      </g>
     </g>
    </g>
    <g id="ytick_8">
     <g id="line2d_25">
      <path clip-path="url(#pc34aa8b378)" d="M 72 71.52 
L 274.909091 71.52 
" style="fill:none;stroke:#cccccc;stroke-linecap:round;stroke-width:0.8;"/>
     </g>
     <g id="line2d_26"/>
     <g id="text_14">
      <!-- 0.975 -->
      <g style="fill:#262626;" transform="translate(43.478125 75.098906)scale(0.1 -0.1)">
       <use xlink:href="#ArialMT-48"/>
       <use x="55.615234" xlink:href="#ArialMT-46"/>
       <use x="83.398438" xlink:href="#ArialMT-57"/>
       <use x="139.013672" xlink:href="#ArialMT-55"/>
       <use x="194.628906" xlink:href="#ArialMT-53"/>
      </g>
     </g>
    </g>
    <g id="ytick_9">
     <g id="line2d_27">
      <path clip-path="url(#pc34aa8b378)" d="M 72 45.12 
L 274.909091 45.12 
" style="fill:none;stroke:#cccccc;stroke-linecap:round;stroke-width:0.8;"/>
     </g>
     <g id="line2d_28"/>
     <g id="text_15">
      <!-- 1.000 -->
      <g style="fill:#262626;" transform="translate(43.478125 48.698906)scale(0.1 -0.1)">
       <use xlink:href="#ArialMT-49"/>
       <use x="55.615234" xlink:href="#ArialMT-46"/>
       <use x="83.398438" xlink:href="#ArialMT-48"/>
       <use x="139.013672" xlink:href="#ArialMT-48"/>
       <use x="194.628906" xlink:href="#ArialMT-48"/>
      </g>
     </g>
    </g>
   </g>
   <g id="PathCollection_1">
    <defs>
     <path d="M 0 -6.123724 
L -1.374862 -1.892335 
L -5.824008 -1.892335 
L -2.224573 0.722808 
L -3.599435 4.954197 
L -0 2.339054 
L 3.599435 4.954197 
L 2.224573 0.722808 
L 5.824008 -1.892335 
L 1.374862 -1.892335 
z
" id="m73f998bf9d" style="stroke:#ff0000;"/>
    </defs>
    <g clip-path="url(#pc34aa8b378)">
     <use style="fill:#ff0000;stroke:#ff0000;" x="184.682716" xlink:href="#m73f998bf9d" y="45.12"/>
    </g>
   </g>
   <g id="line2d_29">
    <path clip-path="url(#pc34aa8b378)" d="M 81.883265 289 
L 82.025153 260.811816 
L 82.827165 273.736367 
L 83.629177 259.116775 
L 84.431189 255.302962 
L 85.233202 254.031712 
L 86.035214 253.396056 
L 86.837226 253.184192 
L 88.44125 248.522858 
L 89.243263 254.455504 
L 90.045275 246.82788 
L 90.847287 246.616016 
L 91.649299 72.876009 
L 92.451312 71.392894 
L 93.253324 66.519696 
L 94.055336 65.88404 
L 94.857348 67.790946 
L 95.65936 64.188999 
L 96.461373 68.850332 
L 97.263385 66.095905 
L 98.065397 70.545373 
L 98.867409 66.731561 
L 99.669421 67.367218 
L 100.471434 66.095905 
L 101.273446 64.400925 
L 102.075458 61.646499 
L 102.87747 68.426602 
L 103.679483 71.392894 
L 104.481495 63.977134 
L 105.283507 66.307832 
L 106.085519 62.705884 
L 106.887531 65.248383 
L 107.689544 65.036519 
L 108.491556 64.612791 
L 109.293568 65.460311 
L 110.09558 69.697852 
L 110.897593 65.036519 
L 111.699605 63.129613 
L 112.501617 59.103936 
L 113.303629 60.587114 
L 114.105641 59.315801 
L 114.907654 60.587114 
L 115.709666 65.88404 
L 116.511678 61.858363 
L 117.31369 60.375186 
L 118.115702 63.341477 
L 118.917715 64.824655 
L 119.719727 64.824655 
L 120.521739 65.672175 
L 121.323751 64.824655 
L 122.125764 62.070228 
L 122.927776 63.553405 
L 123.729788 69.485988 
L 124.5318 61.222706 
L 125.333812 68.214675 
L 126.135825 65.460311 
L 127.739849 61.434634 
L 128.541861 63.765269 
L 129.343874 63.977134 
L 130.947898 60.163322 
L 131.74991 56.349509 
L 132.551922 62.705884 
L 133.353935 61.858363 
L 134.155947 57.832687 
L 135.759971 65.248383 
L 136.561983 71.816623 
L 137.363996 61.222706 
L 138.96802 61.222706 
L 139.770032 63.553405 
L 140.572045 67.790946 
L 141.374057 57.408895 
L 142.176069 61.858363 
L 142.978081 66.943425 
L 143.780093 55.713916 
L 144.582106 56.985165 
L 145.384118 69.697852 
L 146.18613 60.375186 
L 146.988142 61.858363 
L 147.790155 59.527728 
L 148.592167 57.832687 
L 149.394179 61.858363 
L 150.196191 59.951457 
L 150.998203 61.010842 
L 151.800216 61.646499 
L 152.602228 72.028487 
L 153.40424 60.587114 
L 154.206252 53.80701 
L 155.008264 66.943425 
L 155.810277 60.587114 
L 156.612289 57.832687 
L 157.414301 61.222706 
L 158.216313 67.790946 
L 159.018326 69.274123 
L 159.820338 66.519696 
L 161.424362 55.290124 
L 162.226374 60.587114 
L 163.028387 55.713916 
L 163.830399 56.561437 
L 164.632411 60.375186 
L 165.434423 56.561437 
L 166.236436 54.018874 
L 167.038448 62.705884 
L 167.84046 55.290124 
L 168.642472 55.502051 
L 169.444484 55.502051 
L 170.246497 55.925781 
L 171.048509 61.010842 
L 171.850521 56.137645 
L 172.652533 54.230739 
L 173.454545 70.757237 
L 174.256558 51.688239 
L 175.05857 57.197031 
L 175.860582 59.951457 
L 176.662594 61.434634 
L 177.464607 53.595146 
L 178.266619 64.400925 
L 179.068631 61.434634 
L 179.870643 59.951457 
L 180.672655 56.137645 
L 181.474668 56.349509 
L 182.27668 45.12 
L 183.078692 56.349509 
L 184.682716 45.12 
L 185.484729 45.543728 
L 186.286741 45.12 
L 187.088753 46.179386 
L 187.890765 51.900104 
L 188.692778 45.331864 
L 189.49479 45.331864 
L 190.296802 45.12 
L 191.098814 45.12 
L 191.900826 62.282092 
L 192.702839 45.12 
L 193.504851 45.12 
L 194.306863 50.628854 
L 195.108875 49.357541 
L 195.910888 46.815042 
L 196.7129 45.12 
L 197.514912 45.12 
L 198.316924 45.543728 
L 199.118936 46.39125 
L 199.920949 53.171354 
L 200.722961 45.12 
L 201.524973 45.12 
L 202.326985 70.333509 
L 203.128997 45.12 
L 209.545095 45.12 
L 210.347107 54.654531 
L 211.14912 45.12 
L 211.951132 50.205062 
L 212.753144 45.12 
L 213.555156 45.331864 
L 214.357169 45.12 
L 215.159181 45.331864 
L 215.961193 45.12 
L 216.763205 47.450635 
L 217.565217 45.12 
L 219.169242 45.12 
L 219.971254 45.331864 
L 220.773266 45.12 
L 223.179303 45.12 
L 223.981315 45.755656 
L 224.783327 45.12 
L 227.189364 45.12 
L 227.991376 45.331864 
L 228.793388 45.12 
L 229.595401 45.755656 
L 230.397413 68.850332 
L 231.199425 45.755656 
L 232.001437 45.12 
L 232.80345 45.12 
L 233.605462 47.026906 
L 234.407474 45.12 
L 244.833633 45.12 
L 245.635645 49.781333 
L 246.437657 45.12 
L 256.061804 45.12 
L 256.863816 45.967521 
L 257.665828 45.12 
L 265.68595 45.12 
L 265.68595 45.12 
" style="fill:none;stroke:#ff0000;stroke-linecap:round;stroke-width:1.5;"/>
   </g>
   <g id="line2d_30">
    <path clip-path="url(#pc34aa8b378)" d="M 81.89422 289 
L 82.025153 258.60738 
L 82.827165 276.397954 
L 83.629177 257.971977 
L 84.431189 252.888928 
L 85.233202 253.524333 
L 86.035214 251.618182 
L 86.837226 252.253587 
L 87.639238 250.347436 
L 88.44125 250.347436 
L 89.243263 254.159738 
L 90.045275 249.07669 
L 90.847287 248.441285 
L 91.649299 75.618224 
L 92.451312 74.982819 
L 93.253324 70.535177 
L 94.055336 71.805923 
L 94.857348 76.253565 
L 95.65936 67.993621 
L 96.461373 75.618224 
L 97.263385 73.076669 
L 98.065397 77.524313 
L 98.867409 73.712073 
L 100.471434 73.712073 
L 101.273446 71.170518 
L 102.075458 69.899772 
L 102.87747 76.253565 
L 103.679483 78.159717 
L 104.481495 71.170518 
L 105.283507 73.712073 
L 106.085519 70.535177 
L 106.887531 72.441327 
L 107.689544 70.535177 
L 109.293568 73.076669 
L 110.09558 77.524313 
L 110.897593 72.441327 
L 111.699605 70.535177 
L 112.501617 62.910636 
L 113.303629 68.629026 
L 114.907654 67.35828 
L 115.709666 73.076669 
L 116.511678 70.535177 
L 117.31369 69.26443 
L 118.115702 70.535177 
L 118.917715 70.535177 
L 119.719727 72.441327 
L 120.521739 73.076669 
L 121.323751 72.441327 
L 122.125764 68.629026 
L 122.927776 70.535177 
L 123.729788 75.618224 
L 124.5318 71.170518 
L 125.333812 73.712073 
L 126.135825 73.076669 
L 126.937837 71.170518 
L 127.739849 66.722875 
L 128.541861 71.170518 
L 129.343874 69.899772 
L 130.145886 69.26443 
L 131.74991 62.910636 
L 132.551922 67.993621 
L 133.353935 69.26443 
L 134.155947 64.816724 
L 134.957959 67.35828 
L 135.759971 71.805923 
L 136.561983 80.065868 
L 137.363996 67.35828 
L 138.166008 66.087533 
L 138.96802 66.087533 
L 139.770032 73.712073 
L 140.572045 78.159717 
L 141.374057 63.545978 
L 142.176069 66.722875 
L 142.978081 74.347415 
L 143.780093 62.910636 
L 144.582106 66.087533 
L 145.384118 80.701209 
L 146.18613 65.452129 
L 146.988142 66.722875 
L 147.790155 64.816724 
L 148.592167 64.816724 
L 149.394179 66.087533 
L 150.196191 65.452129 
L 150.998203 66.087533 
L 151.800216 65.452129 
L 152.602228 83.242765 
L 153.40424 69.26443 
L 154.206252 58.46293 
L 155.008264 75.618224 
L 155.810277 69.26443 
L 156.612289 64.816724 
L 157.414301 66.722875 
L 158.216313 74.347415 
L 159.018326 80.065868 
L 160.62235 65.452129 
L 161.424362 61.639826 
L 162.226374 69.899772 
L 163.028387 62.275231 
L 163.830399 62.275231 
L 164.632411 65.452129 
L 165.434423 64.816724 
L 166.236436 59.098334 
L 167.038448 68.629026 
L 167.84046 61.004485 
L 168.642472 60.36908 
L 169.444484 62.275231 
L 170.246497 62.910636 
L 171.048509 67.993621 
L 171.850521 63.545978 
L 172.652533 60.36908 
L 173.454545 81.971955 
L 174.256558 54.650691 
L 175.05857 64.181382 
L 175.860582 66.722875 
L 176.662594 66.722875 
L 177.464607 58.46293 
L 178.266619 70.535177 
L 179.068631 69.26443 
L 179.870643 66.087533 
L 180.672655 61.639826 
L 181.474668 62.275231 
L 182.27668 45.12 
L 183.078692 62.910636 
L 183.880704 55.286096 
L 184.682716 45.12 
L 187.088753 45.12 
L 187.890765 56.556842 
L 188.692778 45.12 
L 191.098814 45.12 
L 191.900826 72.441327 
L 192.702839 45.12 
L 193.504851 45.12 
L 194.306863 53.379945 
L 195.108875 50.83839 
L 195.910888 45.755405 
L 196.7129 45.12 
L 197.514912 45.12 
L 198.316924 45.755405 
L 199.118936 45.12 
L 199.920949 59.733739 
L 200.722961 45.12 
L 201.524973 45.12 
L 202.326985 84.513511 
L 203.128997 45.12 
L 209.545095 45.12 
L 210.347107 60.36908 
L 211.14912 45.12 
L 211.951132 52.744541 
L 212.753144 45.12 
L 215.961193 45.12 
L 216.763205 50.203048 
L 217.565217 45.12 
L 223.179303 45.12 
L 223.981315 46.390746 
L 224.783327 45.12 
L 229.595401 45.12 
L 230.397413 81.971955 
L 231.199425 45.12 
L 232.80345 45.12 
L 233.605462 46.390746 
L 234.407474 45.12 
L 244.833633 45.12 
L 245.635645 55.286096 
L 246.437657 45.12 
L 256.061804 45.12 
L 256.863816 48.296897 
L 257.665828 45.12 
L 265.68595 45.12 
L 265.68595 45.12 
" style="fill:none;stroke:#00bfbf;stroke-linecap:round;stroke-width:1.5;"/>
   </g>
   <g id="patch_3">
    <path d="M 72 256.32 
L 72 34.56 
" style="fill:none;stroke:#cccccc;stroke-linecap:square;stroke-linejoin:miter;"/>
   </g>
   <g id="patch_4">
    <path d="M 274.909091 256.32 
L 274.909091 34.56 
" style="fill:none;stroke:#cccccc;stroke-linecap:square;stroke-linejoin:miter;"/>
   </g>
   <g id="patch_5">
    <path d="M 72 256.32 
L 274.909091 256.32 
" style="fill:none;stroke:#cccccc;stroke-linecap:square;stroke-linejoin:miter;"/>
   </g>
   <g id="patch_6">
    <path d="M 72 34.56 
L 274.909091 34.56 
" style="fill:none;stroke:#cccccc;stroke-linecap:square;stroke-linejoin:miter;"/>
   </g>
   <g id="text_16">
    <!-- Accuracy -->
    <defs>
     <path d="M -0.140625 0 
L 27.34375 71.578125 
L 37.546875 71.578125 
L 66.84375 0 
L 56.0625 0 
L 47.703125 21.6875 
L 17.78125 21.6875 
L 9.90625 0 
z
M 20.515625 29.390625 
L 44.78125 29.390625 
L 37.3125 49.21875 
Q 33.890625 58.25 32.234375 64.0625 
Q 30.859375 57.171875 28.375 50.390625 
z
" id="ArialMT-65"/>
     <path d="M 40.4375 19 
L 49.078125 17.875 
Q 47.65625 8.9375 41.8125 3.875 
Q 35.984375 -1.171875 27.484375 -1.171875 
Q 16.84375 -1.171875 10.375 5.78125 
Q 3.90625 12.75 3.90625 25.734375 
Q 3.90625 34.125 6.6875 40.421875 
Q 9.46875 46.734375 15.15625 49.875 
Q 20.84375 53.03125 27.546875 53.03125 
Q 35.984375 53.03125 41.359375 48.75 
Q 46.734375 44.484375 48.25 36.625 
L 39.703125 35.296875 
Q 38.484375 40.53125 35.375 43.15625 
Q 32.28125 45.796875 27.875 45.796875 
Q 21.234375 45.796875 17.078125 41.03125 
Q 12.9375 36.28125 12.9375 25.984375 
Q 12.9375 15.53125 16.9375 10.796875 
Q 20.953125 6.0625 27.390625 6.0625 
Q 32.5625 6.0625 36.03125 9.234375 
Q 39.5 12.40625 40.4375 19 
z
" id="ArialMT-99"/>
     <path d="M 40.578125 0 
L 40.578125 7.625 
Q 34.515625 -1.171875 24.125 -1.171875 
Q 19.53125 -1.171875 15.546875 0.578125 
Q 11.578125 2.34375 9.640625 5 
Q 7.71875 7.671875 6.9375 11.53125 
Q 6.390625 14.109375 6.390625 19.734375 
L 6.390625 51.859375 
L 15.1875 51.859375 
L 15.1875 23.09375 
Q 15.1875 16.21875 15.71875 13.8125 
Q 16.546875 10.359375 19.234375 8.375 
Q 21.921875 6.390625 25.875 6.390625 
Q 29.828125 6.390625 33.296875 8.421875 
Q 36.765625 10.453125 38.203125 13.9375 
Q 39.65625 17.4375 39.65625 24.078125 
L 39.65625 51.859375 
L 48.4375 51.859375 
L 48.4375 0 
z
" id="ArialMT-117"/>
     <path d="M 6.203125 -19.96875 
L 5.21875 -11.71875 
Q 8.109375 -12.5 10.25 -12.5 
Q 13.1875 -12.5 14.9375 -11.515625 
Q 16.703125 -10.546875 17.828125 -8.796875 
Q 18.65625 -7.46875 20.515625 -2.25 
Q 20.75 -1.515625 21.296875 -0.09375 
L 1.609375 51.859375 
L 11.078125 51.859375 
L 21.875 21.828125 
Q 23.96875 16.109375 25.640625 9.8125 
Q 27.15625 15.875 29.25 21.625 
L 40.328125 51.859375 
L 49.125 51.859375 
L 29.390625 -0.875 
Q 26.21875 -9.421875 24.46875 -12.640625 
Q 22.125 -17 19.09375 -19.015625 
Q 16.0625 -21.046875 11.859375 -21.046875 
Q 9.328125 -21.046875 6.203125 -19.96875 
z
" id="ArialMT-121"/>
    </defs>
    <g style="fill:#262626;" transform="translate(148.78142 28.56)scale(0.12 -0.12)">
     <use xlink:href="#ArialMT-65"/>
     <use x="66.699219" xlink:href="#ArialMT-99"/>
     <use x="116.699219" xlink:href="#ArialMT-99"/>
     <use x="166.699219" xlink:href="#ArialMT-117"/>
     <use x="222.314453" xlink:href="#ArialMT-114"/>
     <use x="255.615234" xlink:href="#ArialMT-97"/>
     <use x="311.230469" xlink:href="#ArialMT-99"/>
     <use x="361.230469" xlink:href="#ArialMT-121"/>
    </g>
   </g>
  </g>
  <g id="axes_2">
   <g id="patch_7">
    <path d="M 315.490909 256.32 
L 518.4 256.32 
L 518.4 34.56 
L 315.490909 34.56 
z
" style="fill:#ffffff;"/>
   </g>
   <g id="matplotlib.axis_3">
    <g id="xtick_6">
     <g id="line2d_31">
      <path clip-path="url(#p71c21accb5)" d="M 324.71405 256.32 
L 324.71405 34.56 
" style="fill:none;stroke:#cccccc;stroke-linecap:round;stroke-width:0.8;"/>
     </g>
     <g id="line2d_32"/>
     <g id="text_17">
      <!-- 0 -->
      <g style="fill:#262626;" transform="translate(321.933581 266.977813)scale(0.1 -0.1)">
       <use xlink:href="#ArialMT-48"/>
      </g>
     </g>
    </g>
    <g id="xtick_7">
     <g id="line2d_33">
      <path clip-path="url(#p71c21accb5)" d="M 364.81466 256.32 
L 364.81466 34.56 
" style="fill:none;stroke:#cccccc;stroke-linecap:round;stroke-width:0.8;"/>
     </g>
     <g id="line2d_34"/>
     <g id="text_18">
      <!-- 50 -->
      <g style="fill:#262626;" transform="translate(359.253723 266.977813)scale(0.1 -0.1)">
       <use xlink:href="#ArialMT-53"/>
       <use x="55.615234" xlink:href="#ArialMT-48"/>
      </g>
     </g>
    </g>
    <g id="xtick_8">
     <g id="line2d_35">
      <path clip-path="url(#p71c21accb5)" d="M 404.915271 256.32 
L 404.915271 34.56 
" style="fill:none;stroke:#cccccc;stroke-linecap:round;stroke-width:0.8;"/>
     </g>
     <g id="line2d_36"/>
     <g id="text_19">
      <!-- 100 -->
      <g style="fill:#262626;" transform="translate(396.573865 266.977813)scale(0.1 -0.1)">
       <use xlink:href="#ArialMT-49"/>
       <use x="55.615234" xlink:href="#ArialMT-48"/>
       <use x="111.230469" xlink:href="#ArialMT-48"/>
      </g>
     </g>
    </g>
    <g id="xtick_9">
     <g id="line2d_37">
      <path clip-path="url(#p71c21accb5)" d="M 445.015882 256.32 
L 445.015882 34.56 
" style="fill:none;stroke:#cccccc;stroke-linecap:round;stroke-width:0.8;"/>
     </g>
     <g id="line2d_38"/>
     <g id="text_20">
      <!-- 150 -->
      <g style="fill:#262626;" transform="translate(436.674476 266.977813)scale(0.1 -0.1)">
       <use xlink:href="#ArialMT-49"/>
       <use x="55.615234" xlink:href="#ArialMT-53"/>
       <use x="111.230469" xlink:href="#ArialMT-48"/>
      </g>
     </g>
    </g>
    <g id="xtick_10">
     <g id="line2d_39">
      <path clip-path="url(#p71c21accb5)" d="M 485.116493 256.32 
L 485.116493 34.56 
" style="fill:none;stroke:#cccccc;stroke-linecap:round;stroke-width:0.8;"/>
     </g>
     <g id="line2d_40"/>
     <g id="text_21">
      <!-- 200 -->
      <g style="fill:#262626;" transform="translate(476.775087 266.977813)scale(0.1 -0.1)">
       <use xlink:href="#ArialMT-50"/>
       <use x="55.615234" xlink:href="#ArialMT-48"/>
       <use x="111.230469" xlink:href="#ArialMT-48"/>
      </g>
     </g>
    </g>
    <g id="text_22">
     <!-- Iterations -->
     <g style="fill:#262626;" transform="translate(396.380611 280.123125)scale(0.1 -0.1)">
      <use xlink:href="#ArialMT-73"/>
      <use x="27.783203" xlink:href="#ArialMT-116"/>
      <use x="55.566406" xlink:href="#ArialMT-101"/>
      <use x="111.181641" xlink:href="#ArialMT-114"/>
      <use x="144.482422" xlink:href="#ArialMT-97"/>
      <use x="200.097656" xlink:href="#ArialMT-116"/>
      <use x="227.880859" xlink:href="#ArialMT-105"/>
      <use x="250.097656" xlink:href="#ArialMT-111"/>
      <use x="305.712891" xlink:href="#ArialMT-110"/>
      <use x="361.328125" xlink:href="#ArialMT-115"/>
     </g>
    </g>
   </g>
   <g id="matplotlib.axis_4">
    <g id="ytick_10">
     <g id="line2d_41">
      <path clip-path="url(#p71c21accb5)" d="M 315.490909 256.32 
L 518.4 256.32 
" style="fill:none;stroke:#cccccc;stroke-linecap:round;stroke-width:0.8;"/>
     </g>
     <g id="line2d_42"/>
     <g id="text_23">
      <!-- 0.90 -->
      <g style="fill:#262626;" transform="translate(292.529972 259.898906)scale(0.1 -0.1)">
       <use xlink:href="#ArialMT-48"/>
       <use x="55.615234" xlink:href="#ArialMT-46"/>
       <use x="83.398438" xlink:href="#ArialMT-57"/>
       <use x="139.013672" xlink:href="#ArialMT-48"/>
      </g>
     </g>
    </g>
    <g id="ytick_11">
     <g id="line2d_43">
      <path clip-path="url(#p71c21accb5)" d="M 315.490909 219.36 
L 518.4 219.36 
" style="fill:none;stroke:#cccccc;stroke-linecap:round;stroke-width:0.8;"/>
     </g>
     <g id="line2d_44"/>
     <g id="text_24">
      <!-- 0.95 -->
      <g style="fill:#262626;" transform="translate(292.529972 222.938906)scale(0.1 -0.1)">
       <use xlink:href="#ArialMT-48"/>
       <use x="55.615234" xlink:href="#ArialMT-46"/>
       <use x="83.398438" xlink:href="#ArialMT-57"/>
       <use x="139.013672" xlink:href="#ArialMT-53"/>
      </g>
     </g>
    </g>
    <g id="ytick_12">
     <g id="line2d_45">
      <path clip-path="url(#p71c21accb5)" d="M 315.490909 182.4 
L 518.4 182.4 
" style="fill:none;stroke:#cccccc;stroke-linecap:round;stroke-width:0.8;"/>
     </g>
     <g id="line2d_46"/>
     <g id="text_25">
      <!-- 1.00 -->
      <g style="fill:#262626;" transform="translate(292.529972 185.978906)scale(0.1 -0.1)">
       <use xlink:href="#ArialMT-49"/>
       <use x="55.615234" xlink:href="#ArialMT-46"/>
       <use x="83.398438" xlink:href="#ArialMT-48"/>
       <use x="139.013672" xlink:href="#ArialMT-48"/>
      </g>
     </g>
    </g>
    <g id="ytick_13">
     <g id="line2d_47">
      <path clip-path="url(#p71c21accb5)" d="M 315.490909 145.44 
L 518.4 145.44 
" style="fill:none;stroke:#cccccc;stroke-linecap:round;stroke-width:0.8;"/>
     </g>
     <g id="line2d_48"/>
     <g id="text_26">
      <!-- 1.05 -->
      <g style="fill:#262626;" transform="translate(292.529972 149.018906)scale(0.1 -0.1)">
       <use xlink:href="#ArialMT-49"/>
       <use x="55.615234" xlink:href="#ArialMT-46"/>
       <use x="83.398438" xlink:href="#ArialMT-48"/>
       <use x="139.013672" xlink:href="#ArialMT-53"/>
      </g>
     </g>
    </g>
    <g id="ytick_14">
     <g id="line2d_49">
      <path clip-path="url(#p71c21accb5)" d="M 315.490909 108.48 
L 518.4 108.48 
" style="fill:none;stroke:#cccccc;stroke-linecap:round;stroke-width:0.8;"/>
     </g>
     <g id="line2d_50"/>
     <g id="text_27">
      <!-- 1.10 -->
      <g style="fill:#262626;" transform="translate(292.529972 112.058906)scale(0.1 -0.1)">
       <use xlink:href="#ArialMT-49"/>
       <use x="55.615234" xlink:href="#ArialMT-46"/>
       <use x="83.398438" xlink:href="#ArialMT-49"/>
       <use x="139.013672" xlink:href="#ArialMT-48"/>
      </g>
     </g>
    </g>
    <g id="ytick_15">
     <g id="line2d_51">
      <path clip-path="url(#p71c21accb5)" d="M 315.490909 71.52 
L 518.4 71.52 
" style="fill:none;stroke:#cccccc;stroke-linecap:round;stroke-width:0.8;"/>
     </g>
     <g id="line2d_52"/>
     <g id="text_28">
      <!-- 1.15 -->
      <g style="fill:#262626;" transform="translate(292.529972 75.098906)scale(0.1 -0.1)">
       <use xlink:href="#ArialMT-49"/>
       <use x="55.615234" xlink:href="#ArialMT-46"/>
       <use x="83.398438" xlink:href="#ArialMT-49"/>
       <use x="139.013672" xlink:href="#ArialMT-53"/>
      </g>
     </g>
    </g>
    <g id="ytick_16">
     <g id="line2d_53">
      <path clip-path="url(#p71c21accb5)" d="M 315.490909 34.56 
L 518.4 34.56 
" style="fill:none;stroke:#cccccc;stroke-linecap:round;stroke-width:0.8;"/>
     </g>
     <g id="line2d_54"/>
     <g id="text_29">
      <!-- 1.20 -->
      <g style="fill:#262626;" transform="translate(292.529972 38.138906)scale(0.1 -0.1)">
       <use xlink:href="#ArialMT-49"/>
       <use x="55.615234" xlink:href="#ArialMT-46"/>
       <use x="83.398438" xlink:href="#ArialMT-50"/>
       <use x="139.013672" xlink:href="#ArialMT-48"/>
      </g>
     </g>
    </g>
   </g>
   <g id="PathCollection_2">
    <g clip-path="url(#p71c21accb5)">
     <use style="fill:#ff0000;stroke:#ff0000;" x="428.173626" xlink:href="#m73f998bf9d" y="252.019081"/>
    </g>
   </g>
   <g id="line2d_55">
    <path clip-path="url(#p71c21accb5)" d="M 325.105117 -1 
L 325.516062 45.413468 
L 326.318074 69.929901 
L 327.120086 88.88802 
L 327.922098 96.930775 
L 328.724111 102.742521 
L 329.526123 106.423978 
L 331.130147 110.443109 
L 331.93216 112.065389 
L 332.734172 110.687199 
L 333.536184 115.497467 
L 334.338196 115.528398 
L 335.140208 221.679754 
L 335.942221 228.058461 
L 336.744233 231.042541 
L 337.546245 232.571546 
L 338.348257 233.510768 
L 339.150269 232.895165 
L 339.952282 233.339111 
L 340.754294 235.752793 
L 341.556306 233.601399 
L 342.358318 236.327861 
L 343.160331 236.239961 
L 344.764355 237.949039 
L 345.566367 237.774519 
L 346.368379 235.519673 
L 347.170392 234.245288 
L 347.972404 238.687877 
L 348.774416 237.53219 
L 349.576428 239.422485 
L 350.378441 238.084655 
L 351.180453 237.593477 
L 351.982465 239.059962 
L 352.784477 238.270279 
L 353.586489 235.615678 
L 354.388502 238.493706 
L 355.992526 240.718944 
L 356.794538 240.698808 
L 357.59655 241.458619 
L 358.398563 240.679686 
L 359.200575 238.191059 
L 360.002587 241.120505 
L 360.804599 241.451966 
L 361.606612 239.944197 
L 362.408624 238.124882 
L 363.210636 239.000261 
L 364.012648 238.174493 
L 364.81466 238.941529 
L 365.616673 241.307538 
L 366.418685 239.457469 
L 367.220697 235.21707 
L 368.022709 241.001499 
L 368.824722 235.811216 
L 369.626734 238.390342 
L 370.428746 240.086863 
L 371.230758 240.806138 
L 372.03277 239.395609 
L 372.834783 239.170728 
L 373.636795 240.55698 
L 375.240819 243.857452 
L 376.042831 240.154935 
L 376.844844 240.601613 
L 377.646856 243.318557 
L 379.25088 238.828075 
L 380.052893 234.273531 
L 380.854905 240.969864 
L 381.656917 241.188797 
L 382.458929 240.87117 
L 383.260941 239.967196 
L 384.062954 237.167331 
L 384.864966 243.597279 
L 385.666978 240.330601 
L 386.46899 237.709971 
L 387.271003 244.548176 
L 388.073015 243.567319 
L 388.875027 236.334161 
L 389.677039 242.103962 
L 390.479051 240.704007 
L 391.281064 242.636159 
L 392.083076 243.796605 
L 392.885088 240.502082 
L 393.6871 242.62325 
L 394.489112 241.446018 
L 395.291125 241.170027 
L 396.093137 234.314902 
L 396.895149 242.040648 
L 397.697161 245.891823 
L 398.499174 237.203107 
L 399.301186 242.277513 
L 400.103198 243.886399 
L 400.90521 240.955588 
L 401.707222 237.394151 
L 402.509235 236.4251 
L 403.311247 238.806927 
L 404.915271 245.27904 
L 405.717284 241.846213 
L 406.519296 244.516454 
L 407.321308 244.045014 
L 408.12332 241.65138 
L 409.727345 246.316207 
L 410.529357 239.712883 
L 411.331369 245.573183 
L 412.133381 245.106811 
L 413.737406 244.84016 
L 414.539418 241.501577 
L 415.34143 244.65251 
L 416.143442 246.036383 
L 416.945455 235.468079 
L 417.747467 248.390584 
L 418.549479 244.590739 
L 419.351491 241.549426 
L 420.153503 240.884035 
L 420.955516 246.921279 
L 421.757528 239.912474 
L 422.55954 241.412752 
L 423.361552 241.791887 
L 424.163564 245.344645 
L 424.965577 245.104035 
L 425.767589 251.469568 
L 426.569601 245.01402 
L 428.173626 251.958543 
L 428.975638 251.189965 
L 429.77765 251.639947 
L 430.579662 251.209791 
L 431.381674 248.444821 
L 432.183687 251.844252 
L 432.985699 251.692907 
L 433.787711 252.226778 
L 434.589723 252.357151 
L 435.391736 241.896749 
L 436.193748 252.213869 
L 436.99576 252.325869 
L 437.797772 248.586694 
L 438.599784 249.508468 
L 439.401797 250.815016 
L 440.203809 252.555993 
L 441.005821 252.355741 
L 442.609845 251.337344 
L 443.411858 246.472046 
L 444.21387 252.556125 
L 445.015882 252.634419 
L 445.817894 234.895831 
L 446.619907 252.460383 
L 447.421919 251.989693 
L 449.025943 252.624858 
L 450.629968 252.581503 
L 451.43198 252.528412 
L 453.036004 252.634331 
L 453.838017 246.301359 
L 454.640029 252.658255 
L 455.442041 248.333218 
L 456.244053 252.658124 
L 457.046065 251.723396 
L 457.848078 252.529073 
L 458.65009 252.294278 
L 459.452102 252.681563 
L 460.254114 251.257816 
L 461.056126 252.691873 
L 462.660151 252.69694 
L 463.462163 252.515854 
L 464.264175 252.674029 
L 465.8682 252.707338 
L 466.670212 252.464745 
L 467.472224 251.248387 
L 468.274236 252.714872 
L 470.680273 252.710951 
L 471.482285 252.289652 
L 472.284298 252.720115 
L 473.08631 252.231757 
L 473.888322 236.373991 
L 474.690334 252.070718 
L 475.492346 252.676629 
L 476.294359 252.707999 
L 477.096371 251.174103 
L 477.898383 252.729677 
L 478.700395 252.724785 
L 479.502407 252.409979 
L 480.30442 252.72038 
L 483.512469 252.731835 
L 484.314481 252.430731 
L 485.116493 252.644289 
L 485.918505 252.732761 
L 486.720517 252.607719 
L 488.324542 252.725755 
L 489.126554 248.602203 
L 489.928566 252.723993 
L 499.552713 252.735757 
L 500.354725 251.831651 
L 501.156737 252.737475 
L 507.572835 252.707514 
L 508.374847 252.629088 
L 509.17686 252.737607 
L 509.17686 252.737607 
" style="fill:none;stroke:#ff0000;stroke-linecap:round;stroke-width:1.5;"/>
   </g>
   <g id="line2d_56">
    <path clip-path="url(#p71c21accb5)" d="M 325.141675 -1 
L 325.516062 43.645614 
L 326.318074 69.647566 
L 327.120086 88.408562 
L 327.922098 96.508154 
L 328.724111 102.326156 
L 329.526123 106.056432 
L 331.130147 110.007358 
L 331.93216 111.318223 
L 332.734172 110.658825 
L 333.536184 114.352354 
L 334.338196 114.132408 
L 335.140208 218.289401 
L 335.942221 224.546283 
L 336.744233 227.28746 
L 337.546245 228.89683 
L 338.348257 229.403958 
L 339.150269 229.255301 
L 339.952282 229.643247 
L 340.754294 230.968785 
L 341.556306 229.588613 
L 342.358318 231.409647 
L 343.160331 231.368891 
L 343.962343 232.323666 
L 344.764355 233.487901 
L 345.566367 233.786582 
L 346.368379 230.948693 
L 347.170392 229.622803 
L 347.972404 233.840864 
L 348.774416 233.009236 
L 349.576428 234.819695 
L 350.378441 232.784663 
L 351.180453 233.676565 
L 351.982465 234.160781 
L 352.784477 233.700357 
L 353.586489 230.422929 
L 354.388502 233.26064 
L 355.190514 234.282739 
L 355.992526 237.286513 
L 356.794538 235.858801 
L 357.59655 236.82578 
L 358.398563 236.115669 
L 359.200575 233.168204 
L 360.002587 235.93661 
L 360.804599 236.394611 
L 362.408624 234.008467 
L 363.210636 234.311818 
L 364.012648 233.753405 
L 364.81466 234.042084 
L 365.616673 236.439552 
L 366.418685 235.118773 
L 367.220697 231.479393 
L 368.022709 235.135824 
L 368.824722 232.178798 
L 369.626734 233.835136 
L 370.428746 235.079956 
L 371.230758 236.560452 
L 372.03277 234.404432 
L 373.636795 235.993095 
L 374.438807 237.511437 
L 375.240819 239.881852 
L 376.042831 236.132235 
L 376.844844 235.773545 
L 377.646856 238.634212 
L 378.448868 236.728364 
L 379.25088 234.142584 
L 380.052893 229.51305 
L 380.854905 236.600987 
L 381.656917 237.548448 
L 382.458929 237.195353 
L 383.260941 233.031838 
L 384.062954 229.875001 
L 384.864966 239.35547 
L 385.666978 236.674787 
L 386.46899 232.168267 
L 387.271003 239.988213 
L 388.073015 238.329716 
L 388.875027 228.455616 
L 389.677039 237.987943 
L 390.479051 236.427215 
L 391.281064 238.322225 
L 392.083076 239.352783 
L 392.885088 236.869002 
L 393.6871 238.312047 
L 394.489112 237.435479 
L 395.291125 237.610043 
L 396.093137 226.733805 
L 396.895149 236.724398 
L 397.697161 243.098787 
L 398.499174 232.250351 
L 399.301186 236.821814 
L 400.103198 239.647146 
L 400.90521 236.805864 
L 401.707222 231.703789 
L 402.509235 229.273321 
L 404.915271 241.515897 
L 405.717284 235.448736 
L 406.519296 240.614037 
L 407.321308 240.305619 
L 408.12332 237.628857 
L 408.925332 238.946728 
L 409.727345 243.385175 
L 410.529357 235.781387 
L 411.331369 241.853218 
L 412.133381 241.580444 
L 412.935393 240.494724 
L 413.737406 240.97145 
L 414.539418 236.897289 
L 415.34143 240.490582 
L 416.143442 242.433353 
L 416.945455 227.137084 
L 417.747467 246.870831 
L 418.549479 239.9375 
L 419.351491 237.054935 
L 420.153503 236.122718 
L 420.955516 244.220813 
L 421.757528 235.78174 
L 423.361552 237.463985 
L 424.163564 242.002096 
L 424.965577 241.489901 
L 425.767589 251.372327 
L 426.569601 241.163683 
L 428.173626 252.019081 
L 428.975638 251.020687 
L 429.77765 251.378319 
L 430.579662 250.641949 
L 431.381674 246.272675 
L 432.183687 252.134032 
L 432.985699 251.558524 
L 433.787711 252.236692 
L 434.589723 252.296965 
L 435.391736 235.118376 
L 436.193748 252.093145 
L 436.99576 252.197082 
L 437.797772 246.31396 
L 438.599784 247.835343 
L 440.203809 252.573309 
L 441.005821 252.228144 
L 441.807833 251.309454 
L 442.609845 250.796995 
L 443.411858 242.324701 
L 444.21387 252.547489 
L 445.015882 252.630895 
L 445.817894 226.100711 
L 446.619907 252.586218 
L 447.421919 251.799399 
L 448.223931 252.390284 
L 449.025943 252.667772 
L 453.036004 252.608733 
L 453.838017 242.788518 
L 454.640029 252.638781 
L 455.442041 246.037352 
L 456.244053 252.697469 
L 457.046065 251.277643 
L 457.848078 252.62477 
L 458.65009 252.585337 
L 459.452102 252.709629 
L 460.254114 249.773928 
L 461.056126 252.692754 
L 462.660151 252.688348 
L 463.462163 252.375436 
L 464.264175 252.66156 
L 465.8682 252.71148 
L 466.670212 252.377418 
L 467.472224 250.258629 
L 468.274236 252.718706 
L 469.878261 252.697337 
L 470.680273 252.728046 
L 471.482285 252.025601 
L 472.284298 252.734743 
L 473.08631 252.47836 
L 473.888322 227.346853 
L 474.690334 252.384556 
L 475.492346 252.671077 
L 476.294359 252.729985 
L 477.096371 251.42119 
L 477.898383 252.735272 
L 478.700395 252.733862 
L 479.502407 252.326574 
L 480.30442 252.736373 
L 483.512469 252.738841 
L 484.314481 252.388037 
L 485.116493 252.640984 
L 485.918505 252.739326 
L 487.52253 252.718618 
L 488.324542 252.731615 
L 489.126554 245.50793 
L 489.928566 252.738885 
L 499.552713 252.740339 
L 500.354725 250.797612 
L 501.156737 252.743555 
L 509.17686 252.740251 
L 509.17686 252.740251 
" style="fill:none;stroke:#00bfbf;stroke-linecap:round;stroke-width:1.5;"/>
   </g>
   <g id="patch_8">
    <path d="M 315.490909 256.32 
L 315.490909 34.56 
" style="fill:none;stroke:#cccccc;stroke-linecap:square;stroke-linejoin:miter;"/>
   </g>
   <g id="patch_9">
    <path d="M 518.4 256.32 
L 518.4 34.56 
" style="fill:none;stroke:#cccccc;stroke-linecap:square;stroke-linejoin:miter;"/>
   </g>
   <g id="patch_10">
    <path d="M 315.490909 256.32 
L 518.4 256.32 
" style="fill:none;stroke:#cccccc;stroke-linecap:square;stroke-linejoin:miter;"/>
   </g>
   <g id="patch_11">
    <path d="M 315.490909 34.56 
L 518.4 34.56 
" style="fill:none;stroke:#cccccc;stroke-linecap:square;stroke-linejoin:miter;"/>
   </g>
   <g id="text_30">
    <!-- Loss -->
    <defs>
     <path d="M 7.328125 0 
L 7.328125 71.578125 
L 16.796875 71.578125 
L 16.796875 8.453125 
L 52.046875 8.453125 
L 52.046875 0 
z
" id="ArialMT-76"/>
    </defs>
    <g style="fill:#262626;" transform="translate(404.27233 28.56)scale(0.12 -0.12)">
     <use xlink:href="#ArialMT-76"/>
     <use x="55.615234" xlink:href="#ArialMT-111"/>
     <use x="111.230469" xlink:href="#ArialMT-115"/>
     <use x="161.230469" xlink:href="#ArialMT-115"/>
    </g>
   </g>
   <g id="legend_1">
    <g id="line2d_57">
     <path d="M 435.26875 47.217813 
L 455.26875 47.217813 
" style="fill:none;stroke:#ff0000;stroke-linecap:round;stroke-width:1.5;"/>
    </g>
    <g id="line2d_58"/>
    <g id="text_31">
     <!-- Train -->
     <defs>
      <path d="M 25.921875 0 
L 25.921875 63.140625 
L 2.34375 63.140625 
L 2.34375 71.578125 
L 59.078125 71.578125 
L 59.078125 63.140625 
L 35.40625 63.140625 
L 35.40625 0 
z
" id="ArialMT-84"/>
     </defs>
     <g style="fill:#262626;" transform="translate(463.26875 50.717813)scale(0.1 -0.1)">
      <use xlink:href="#ArialMT-84"/>
      <use x="61.037109" xlink:href="#ArialMT-114"/>
      <use x="94.337891" xlink:href="#ArialMT-97"/>
      <use x="149.953125" xlink:href="#ArialMT-105"/>
      <use x="172.169922" xlink:href="#ArialMT-110"/>
     </g>
    </g>
    <g id="line2d_59">
     <path d="M 435.26875 61.363125 
L 455.26875 61.363125 
" style="fill:none;stroke:#00bfbf;stroke-linecap:round;stroke-width:1.5;"/>
    </g>
    <g id="line2d_60"/>
    <g id="text_32">
     <!-- Validation -->
     <defs>
      <path d="M 28.171875 0 
L 0.4375 71.578125 
L 10.6875 71.578125 
L 29.296875 19.578125 
Q 31.546875 13.328125 33.0625 7.859375 
Q 34.71875 13.71875 36.921875 19.578125 
L 56.25 71.578125 
L 65.921875 71.578125 
L 37.890625 0 
z
" id="ArialMT-86"/>
      <path d="M 6.390625 0 
L 6.390625 71.578125 
L 15.1875 71.578125 
L 15.1875 0 
z
" id="ArialMT-108"/>
      <path d="M 40.234375 0 
L 40.234375 6.546875 
Q 35.296875 -1.171875 25.734375 -1.171875 
Q 19.53125 -1.171875 14.328125 2.25 
Q 9.125 5.671875 6.265625 11.796875 
Q 3.421875 17.921875 3.421875 25.875 
Q 3.421875 33.640625 6 39.96875 
Q 8.59375 46.296875 13.765625 49.65625 
Q 18.953125 53.03125 25.34375 53.03125 
Q 30.03125 53.03125 33.6875 51.046875 
Q 37.359375 49.078125 39.65625 45.90625 
L 39.65625 71.578125 
L 48.390625 71.578125 
L 48.390625 0 
z
M 12.453125 25.875 
Q 12.453125 15.921875 16.640625 10.984375 
Q 20.84375 6.0625 26.5625 6.0625 
Q 32.328125 6.0625 36.34375 10.765625 
Q 40.375 15.484375 40.375 25.140625 
Q 40.375 35.796875 36.265625 40.765625 
Q 32.171875 45.75 26.171875 45.75 
Q 20.3125 45.75 16.375 40.96875 
Q 12.453125 36.1875 12.453125 25.875 
z
" id="ArialMT-100"/>
     </defs>
     <g style="fill:#262626;" transform="translate(463.26875 64.863125)scale(0.1 -0.1)">
      <use xlink:href="#ArialMT-86"/>
      <use x="66.589844" xlink:href="#ArialMT-97"/>
      <use x="122.205078" xlink:href="#ArialMT-108"/>
      <use x="144.421875" xlink:href="#ArialMT-105"/>
      <use x="166.638672" xlink:href="#ArialMT-100"/>
      <use x="222.253906" xlink:href="#ArialMT-97"/>
      <use x="277.869141" xlink:href="#ArialMT-116"/>
      <use x="305.652344" xlink:href="#ArialMT-105"/>
      <use x="327.869141" xlink:href="#ArialMT-111"/>
      <use x="383.484375" xlink:href="#ArialMT-110"/>
     </g>
    </g>
    <g id="PathCollection_3">
     <g>
      <use style="fill:#ff0000;stroke:#ff0000;" x="445.26875" xlink:href="#m73f998bf9d" y="76.505313"/>
     </g>
    </g>
    <g id="text_33">
     <!-- Early Stop -->
     <defs>
      <path d="M 7.90625 0 
L 7.90625 71.578125 
L 59.671875 71.578125 
L 59.671875 63.140625 
L 17.390625 63.140625 
L 17.390625 41.21875 
L 56.984375 41.21875 
L 56.984375 32.8125 
L 17.390625 32.8125 
L 17.390625 8.453125 
L 61.328125 8.453125 
L 61.328125 0 
z
" id="ArialMT-69"/>
      <path id="ArialMT-32"/>
      <path d="M 4.5 23 
L 13.421875 23.78125 
Q 14.0625 18.40625 16.375 14.96875 
Q 18.703125 11.53125 23.578125 9.40625 
Q 28.46875 7.28125 34.578125 7.28125 
Q 39.984375 7.28125 44.140625 8.890625 
Q 48.296875 10.5 50.3125 13.296875 
Q 52.34375 16.109375 52.34375 19.4375 
Q 52.34375 22.796875 50.390625 25.3125 
Q 48.4375 27.828125 43.953125 29.546875 
Q 41.0625 30.671875 31.203125 33.03125 
Q 21.34375 35.40625 17.390625 37.5 
Q 12.25 40.1875 9.734375 44.15625 
Q 7.234375 48.140625 7.234375 53.078125 
Q 7.234375 58.5 10.296875 63.203125 
Q 13.375 67.921875 19.28125 70.359375 
Q 25.203125 72.796875 32.421875 72.796875 
Q 40.375 72.796875 46.453125 70.234375 
Q 52.546875 67.671875 55.8125 62.6875 
Q 59.078125 57.71875 59.328125 51.421875 
L 50.25 50.734375 
Q 49.515625 57.515625 45.28125 60.984375 
Q 41.0625 64.453125 32.8125 64.453125 
Q 24.21875 64.453125 20.28125 61.296875 
Q 16.359375 58.15625 16.359375 53.71875 
Q 16.359375 49.859375 19.140625 47.359375 
Q 21.875 44.875 33.421875 42.265625 
Q 44.96875 39.65625 49.265625 37.703125 
Q 55.515625 34.8125 58.484375 30.390625 
Q 61.46875 25.984375 61.46875 20.21875 
Q 61.46875 14.5 58.203125 9.4375 
Q 54.9375 4.390625 48.796875 1.578125 
Q 42.671875 -1.21875 35.015625 -1.21875 
Q 25.296875 -1.21875 18.71875 1.609375 
Q 12.15625 4.4375 8.421875 10.125 
Q 4.6875 15.828125 4.5 23 
z
" id="ArialMT-83"/>
      <path d="M 6.59375 -19.875 
L 6.59375 51.859375 
L 14.59375 51.859375 
L 14.59375 45.125 
Q 17.4375 49.078125 21 51.046875 
Q 24.5625 53.03125 29.640625 53.03125 
Q 36.28125 53.03125 41.359375 49.609375 
Q 46.4375 46.1875 49.015625 39.953125 
Q 51.609375 33.734375 51.609375 26.3125 
Q 51.609375 18.359375 48.75 11.984375 
Q 45.90625 5.609375 40.453125 2.21875 
Q 35.015625 -1.171875 29 -1.171875 
Q 24.609375 -1.171875 21.109375 0.6875 
Q 17.625 2.546875 15.375 5.375 
L 15.375 -19.875 
z
M 14.546875 25.640625 
Q 14.546875 15.625 18.59375 10.84375 
Q 22.65625 6.0625 28.421875 6.0625 
Q 34.28125 6.0625 38.453125 11.015625 
Q 42.625 15.96875 42.625 26.375 
Q 42.625 36.28125 38.546875 41.203125 
Q 34.46875 46.140625 28.8125 46.140625 
Q 23.1875 46.140625 18.859375 40.890625 
Q 14.546875 35.640625 14.546875 25.640625 
z
" id="ArialMT-112"/>
     </defs>
     <g style="fill:#262626;" transform="translate(463.26875 79.130313)scale(0.1 -0.1)">
      <use xlink:href="#ArialMT-69"/>
      <use x="66.699219" xlink:href="#ArialMT-97"/>
      <use x="122.314453" xlink:href="#ArialMT-114"/>
      <use x="155.615234" xlink:href="#ArialMT-108"/>
      <use x="177.832031" xlink:href="#ArialMT-121"/>
      <use x="227.832031" xlink:href="#ArialMT-32"/>
      <use x="255.615234" xlink:href="#ArialMT-83"/>
      <use x="322.314453" xlink:href="#ArialMT-116"/>
      <use x="350.097656" xlink:href="#ArialMT-111"/>
      <use x="405.712891" xlink:href="#ArialMT-112"/>
     </g>
    </g>
   </g>
  </g>
 </g>
 <defs>
  <clipPath id="pc34aa8b378">
   <rect height="221.76" width="202.909091" x="72" y="34.56"/>
  </clipPath>
  <clipPath id="p71c21accb5">
   <rect height="221.76" width="202.909091" x="315.490909" y="34.56"/>
  </clipPath>
 </defs>
</svg>
